# xmcd
# 
# Track frame offsets:
#     150
#     20122
#     40067
#     61588
# 
# Disc length: 1102
# 
# Revision: 1
# Processed by: cddbd v1.5.2PL0 Copyright (c) Steve Scherf et al.
# Submitted via: fre:ac v1.0.17
# 
DISCID=29044c04
DTITLE=Marlon Und Freunde - Lieber Gott (Maxi)
DYEAR=2002
DGENRE=Pop
TTITLE0=Lieber Gott (Marlon und Freunde Radio Version)
TTITLE1=Lieber Gott (Marlon und Freunde Version)
TTITLE2=Lieber Gott (Nice And Long Version)
TTITLE3=Lieber Gott (Fresh Audio Version)
EXTD=
EXTT0=
EXTT1=
EXTT2=
EXTT3=
PLAYORDER=
